P2
100 87
255
1  2  1  3  4  5  6  6  6  6  6  6  6  6  6  6  6  6  6  6  6  6  6  6  6  6  6  6  6  7  8  9  10  11  12  13  13  13  13  13  13  13  13  13  13  13  13  13  13  13  13  13  13  13  13  13  13  13  13  13  13  13  13  13  13  13  13  13  13  13  13  13  13  13  13  13  14  15  16  17  18  19  19  19  19  19  19  19  19  19  19  19  19  19  19  19  19  19  19  19  
2  1  3  0  0  0  0  6  6  6  6  6  6  6  6  6  6  6  6  6  6  6  6  6  6  6  6  6  0  0  0  0  0  0  0  0  13  13  13  13  13  13  13  13  13  0  0  13  13  13  13  13  13  13  13  13  13  13  13  13  13  13  13  13  13  13  13  13  13  13  13  13  13  13  13  0  0  0  0  0  0  0  19  19  19  19  19  19  19  19  19  19  19  19  19  19  19  0  19  0  
1  3  1  0  0  0  0  6  6  6  6  6  6  6  6  6  6  6  6  6  6  6  6  6  6  6  6  6  0  0  0  0  0  0  0  13  13  13  13  13  13  13  13  13  13  0  0  0  0  13  13  13  13  13  13  13  13  13  13  13  13  13  13  13  13  13  13  13  13  13  13  13  13  13  0  0  0  0  0  0  0  19  19  19  19  19  19  19  19  19  19  19  19  19  19  19  19  19  19  0  
3  1  0  0  0  0  6  6  6  6  6  6  6  6  6  6  6  6  6  6  6  6  6  6  6  6  6  6  0  0  0  0  0  0  13  13  13  13  13  13  13  13  13  13  13  13  13  0  0  0  0  13  13  13  13  13  13  13  13  13  13  13  13  13  13  13  13  13  13  13  13  13  13  13  0  0  0  0  0  0  19  19  19  19  19  19  19  19  19  19  19  19  19  19  19  19  19  19  19  19  
1  0  0  0  0  0  6  6  6  6  6  6  6  6  6  6  6  6  6  6  6  6  6  6  6  6  6  6  0  0  0  0  0  0  13  13  13  13  13  13  13  13  13  13  13  13  13  13  0  0  0  0  0  13  13  13  13  13  13  13  13  13  13  13  13  13  13  13  13  13  13  13  13  0  0  0  0  0  0  0  19  19  19  19  19  19  19  19  19  19  19  19  19  19  19  19  19  19  19  19  
0  0  0  0  0  6  6  6  6  6  6  6  6  6  6  6  6  6  6  6  6  6  6  6  6  6  6  0  0  0  0  0  0  0  13  13  13  13  13  13  13  13  13  13  13  13  13  13  13  13  0  0  0  0  0  0  13  13  13  13  13  13  13  13  13  13  13  13  13  13  13  13  13  0  0  0  0  0  0  19  19  19  19  19  19  19  19  19  19  19  19  19  19  19  19  19  19  19  19  19  
0  0  0  0  0  6  6  6  6  6  6  6  6  6  6  6  6  6  6  6  6  6  6  6  6  6  6  6  0  0  0  0  0  0  13  13  13  13  13  13  13  13  13  13  13  13  13  13  13  13  13  13  0  0  0  0  0  13  13  13  13  13  13  13  13  13  13  13  13  13  13  13  0  0  0  0  0  0  0  19  19  19  19  19  19  19  19  19  19  19  19  19  19  19  19  19  19  19  19  19  
0  0  0  0  0  6  6  6  6  6  6  6  6  6  6  6  6  6  6  6  6  6  6  6  6  6  6  0  0  0  0  0  0  0  13  13  13  13  13  13  13  13  13  13  13  13  13  13  13  13  13  13  13  13  0  0  0  0  13  0  13  13  13  13  13  13  13  13  13  13  13  0  0  0  0  0  0  19  19  19  19  19  19  19  19  19  19  19  19  19  19  19  19  19  19  19  19  19  19  19  
0  0  0  0  0  6  6  6  6  6  6  6  6  6  6  6  6  6  6  6  6  6  6  6  6  6  6  6  0  0  0  0  0  0  13  13  13  13  13  13  13  13  13  13  13  13  13  13  13  13  13  13  13  13  13  13  0  0  0  13  13  13  13  13  13  13  13  13  13  13  13  0  0  0  0  0  19  19  19  19  19  19  19  19  19  19  19  19  19  19  19  19  19  19  19  19  19  19  19  19  
0  0  0  0  0  0  6  6  6  6  6  6  6  6  6  6  6  6  6  6  6  6  6  6  6  6  6  6  0  0  0  0  0  0  13  13  13  13  13  13  13  13  13  13  13  13  13  13  13  13  13  13  13  13  13  13  13  13  13  13  13  13  13  13  13  13  13  13  13  13  0  0  0  0  0  19  19  19  19  19  19  19  19  19  19  19  19  19  19  19  19  19  19  19  19  19  19  19  19  19  
0  0  0  0  0  0  6  6  6  6  6  6  6  6  6  6  6  6  6  6  6  6  6  6  6  6  6  6  0  0  0  0  0  13  13  13  13  13  13  13  13  13  13  13  13  13  13  13  13  13  13  13  13  13  13  13  13  13  13  13  13  13  13  13  13  13  13  13  0  0  0  0  0  0  0  19  19  19  19  19  19  19  19  19  19  19  19  19  19  19  19  19  19  19  19  19  19  19  19  19  
0  0  0  0  0  0  0  6  6  6  6  6  6  6  6  6  6  6  6  6  6  6  6  6  6  6  6  6  0  0  0  0  0  13  13  13  13  13  13  13  13  13  13  13  13  13  13  13  13  13  13  13  13  13  13  13  13  13  13  13  13  13  13  13  13  13  0  0  0  0  0  0  0  0  19  19  19  19  19  19  19  19  19  19  19  19  19  19  19  19  19  19  19  19  19  19  19  19  19  19  
0  0  0  0  0  0  0  6  6  6  6  6  6  6  6  6  6  6  6  6  6  6  6  6  6  6  6  6  0  0  0  0  0  13  13  13  13  13  13  13  13  13  13  13  13  13  13  13  13  13  13  13  13  13  13  13  13  13  13  13  13  13  13  13  13  0  0  0  0  0  0  0  0  0  0  19  19  19  19  19  19  19  19  19  19  19  19  19  19  19  19  19  19  19  19  19  19  19  19  19  
0  0  0  0  0  0  0  0  6  6  6  6  6  6  6  6  6  6  6  6  6  6  6  6  6  6  6  6  0  0  0  0  13  13  13  13  13  13  13  13  13  13  13  13  13  13  13  13  13  13  13  13  13  13  13  13  13  13  13  13  13  13  13  13  13  13  0  0  0  0  0  0  0  0  0  19  19  19  19  19  19  19  19  19  19  19  19  19  19  19  19  19  19  19  19  19  19  19  19  19  
0  0  0  0  0  0  0  0  0  6  6  6  6  6  6  6  6  6  6  6  6  6  6  6  6  6  6  6  0  0  0  0  0  13  13  13  13  13  13  13  13  13  13  13  13  13  13  13  13  13  13  13  13  13  13  13  13  13  13  13  13  13  13  13  13  13  0  0  0  0  0  0  0  0  0  19  19  19  19  19  19  19  19  19  19  19  19  19  19  19  19  19  19  19  19  19  19  19  19  19  
0  0  0  0  0  0  0  0  0  6  6  6  6  6  6  6  6  6  6  6  6  6  6  6  6  6  6  6  0  0  0  0  13  13  13  13  13  13  13  13  13  13  13  13  13  13  13  13  13  13  13  13  13  13  13  13  13  13  13  13  13  13  13  13  13  0  0  0  0  0  0  0  0  0  0  19  19  19  19  19  19  19  19  19  19  19  19  19  19  19  19  19  19  19  19  19  19  19  19  19  
0  0  0  0  0  0  0  0  0  0  6  6  6  6  6  6  6  6  6  6  6  6  6  6  6  6  6  6  0  0  0  0  13  13  13  13  13  13  13  13  13  13  13  13  13  13  13  13  13  13  13  13  13  13  13  13  13  13  13  13  13  13  13  13  13  13  0  0  0  0  0  0  0  0  0  0  19  19  19  19  19  19  19  19  19  19  19  19  19  19  19  19  19  19  19  19  19  19  19  19  
0  0  0  0  0  0  0  0  0  0  0  6  6  6  6  6  6  6  6  6  6  6  6  6  6  6  6  0  0  0  0  0  13  13  13  13  13  13  13  13  13  13  13  13  13  13  13  13  13  13  13  13  13  13  13  13  13  13  13  13  13  13  13  13  13  0  0  0  0  0  0  0  0  0  0  0  19  19  19  19  19  19  19  19  19  19  19  19  19  19  19  19  19  19  19  19  19  19  19  19  
0  0  0  0  0  0  0  0  0  0  0  0  6  6  6  6  6  6  6  6  6  6  6  6  6  6  6  0  0  0  0  0  0  13  13  13  13  13  13  13  13  13  13  13  13  13  13  13  13  13  13  13  13  13  13  13  13  13  13  13  13  13  13  13  13  0  0  0  0  0  0  0  0  0  0  0  0  19  19  19  19  19  19  19  19  19  19  19  19  19  19  19  19  19  19  19  19  19  19  19  
0  0  0  0  0  0  0  0  0  0  0  0  0  0  0  0  0  0  0  0  0  0  0  0  0  0  0  0  0  0  0  0  0  13  13  13  13  13  13  13  13  13  13  13  13  13  13  13  13  13  13  13  13  13  13  13  13  13  13  13  13  13  13  13  0  0  0  0  0  0  20  20  20  0  0  0  0  0  19  19  19  19  19  19  19  19  19  19  19  19  19  19  19  19  19  19  19  19  19  0  
0  0  0  0  0  0  0  0  0  0  0  0  0  0  0  0  0  0  0  0  0  0  0  0  0  0  0  0  0  0  0  0  0  0  13  13  13  13  13  13  13  13  13  13  13  13  13  13  13  13  13  13  13  13  13  13  13  13  13  13  13  13  13  13  0  0  0  0  0  20  20  20  20  20  20  0  0  0  0  0  19  19  19  19  19  19  19  19  19  19  19  19  19  19  19  19  19  19  0  0  
0  0  0  0  0  0  0  0  0  0  0  0  0  0  21  21  21  21  21  21  0  0  21  21  21  21  21  21  21  21  21  0  0  0  0  13  13  13  13  13  13  13  13  13  13  13  13  13  13  13  13  13  13  13  13  13  13  13  13  13  13  13  13  0  0  0  0  20  20  20  20  20  20  20  20  20  20  0  0  0  0  0  19  19  19  19  19  19  19  19  19  19  19  19  19  19  19  0  0  0  
0  0  0  0  0  0  0  0  0  0  0  0  0  21  21  21  21  21  21  21  21  21  21  21  21  21  21  21  21  21  21  21  0  0  0  0  13  13  13  13  13  13  13  13  13  13  13  13  13  13  13  13  13  13  13  13  13  13  13  13  13  13  0  0  0  0  20  20  20  20  20  20  20  20  20  20  20  20  20  0  0  0  0  19  19  19  19  19  19  19  19  19  0  0  19  19  19  19  19  19  
0  0  0  0  0  0  0  0  0  0  0  0  0  21  21  21  21  21  21  21  21  21  21  21  21  21  21  21  21  21  21  21  0  0  0  0  0  0  0  13  13  13  13  13  13  13  13  13  13  13  13  13  13  13  13  13  13  13  13  13  0  0  0  0  20  20  20  20  20  20  20  20  20  20  20  20  20  20  20  20  0  0  0  0  0  19  19  19  19  19  0  0  19  19  19  19  19  19  19  19  
0  0  0  0  0  0  0  0  0  0  0  0  0  21  21  21  21  21  21  21  21  21  21  21  21  21  21  21  21  21  21  21  21  0  0  0  0  0  0  0  0  0  0  13  13  13  13  13  13  13  13  13  13  13  13  13  13  13  13  13  0  0  0  20  20  20  20  20  20  20  20  20  20  20  20  20  20  20  20  20  20  0  0  0  0  0  0  0  0  0  0  19  19  19  19  19  19  19  19  19  
0  0  0  0  0  0  0  0  0  0  0  0  0  21  21  21  21  21  21  21  21  21  21  21  21  21  21  21  21  21  21  21  21  0  0  0  0  0  0  0  0  0  0  0  0  0  0  0  0  0  0  13  13  13  13  13  13  13  0  0  0  0  0  20  20  20  20  20  20  20  20  20  20  20  20  20  20  20  20  20  20  20  0  0  0  0  0  0  0  0  19  19  19  19  19  19  19  19  19  19  
0  0  0  0  0  0  0  0  0  0  0  0  0  21  21  21  21  21  21  21  21  21  21  21  21  21  21  21  21  21  21  21  21  0  0  0  0  0  0  0  0  20  20  20  20  20  20  20  0  0  0  0  0  0  0  0  0  0  0  0  0  0  0  20  20  20  20  20  20  20  20  20  20  20  20  20  20  20  20  20  20  20  0  0  0  0  0  0  0  19  19  19  19  19  19  19  19  19  19  19  
0  0  0  0  0  0  0  0  0  0  0  0  0  21  21  21  21  21  21  21  21  21  21  21  21  21  21  21  21  21  21  21  21  0  0  0  0  0  0  0  20  20  20  20  20  20  20  20  20  20  20  20  20  20  0  0  0  0  0  0  0  0  20  20  20  20  20  20  20  20  20  20  20  20  20  20  20  20  20  20  20  20  0  0  0  0  0  0  0  19  19  19  19  19  19  19  19  19  19  19  
0  0  0  0  0  0  0  0  0  0  0  0  21  21  21  21  21  21  21  21  21  21  21  21  21  21  21  21  21  21  21  21  21  0  0  0  0  0  0  0  20  20  20  20  20  20  20  20  20  20  20  20  20  20  20  20  0  0  0  0  0  0  20  20  20  20  20  20  20  20  20  20  20  20  20  20  20  20  20  20  20  20  0  0  0  0  0  0  0  19  19  19  19  19  19  19  19  19  19  19  
0  0  0  0  0  0  0  0  0  0  0  0  21  21  21  21  21  21  21  21  21  21  21  21  21  21  21  21  21  21  21  21  21  0  0  0  0  0  0  20  20  20  20  20  20  20  20  20  20  20  20  20  20  20  20  20  20  20  0  0  0  0  20  20  20  20  20  20  20  20  20  20  20  20  20  20  20  20  20  20  20  20  0  0  0  0  0  0  19  19  19  19  19  19  19  19  19  19  19  19  
0  0  0  0  0  0  0  0  0  0  0  0  21  21  21  21  21  21  21  21  21  21  21  21  21  21  21  21  21  21  21  21  21  0  0  0  0  0  0  20  20  20  20  20  20  20  20  20  20  20  20  20  20  20  20  20  20  20  20  0  0  0  20  20  20  20  20  20  20  20  20  20  20  20  20  20  20  20  20  20  20  20  20  0  0  0  0  0  0  19  19  19  19  19  19  19  19  19  19  19  
0  0  0  0  0  0  0  0  0  0  0  0  21  21  21  21  21  21  21  21  21  21  21  21  21  21  21  21  21  21  21  21  21  0  0  0  0  0  0  20  20  20  20  20  20  20  20  20  20  20  20  20  20  20  20  20  20  20  20  20  20  0  20  20  20  20  20  20  20  20  20  20  20  20  20  20  20  20  20  20  20  20  20  0  0  0  0  0  0  19  19  19  19  19  19  19  19  19  19  19  
0  0  0  0  0  0  0  0  0  0  0  21  21  21  21  21  21  21  21  21  21  21  21  21  21  21  21  21  21  21  21  21  21  21  0  0  0  0  0  20  20  20  20  20  20  20  20  20  20  20  20  20  20  20  20  20  20  20  20  20  20  20  20  20  20  20  20  20  20  20  20  20  20  20  20  20  20  20  20  20  20  20  20  0  0  0  0  0  0  19  19  19  19  19  19  19  19  19  19  19  
0  0  0  0  0  0  0  0  0  0  0  21  21  21  21  21  21  21  21  21  21  21  21  21  21  21  21  21  21  21  21  21  21  21  0  0  0  0  0  20  20  20  20  20  20  20  20  20  20  20  20  20  20  20  20  20  20  20  20  20  20  20  20  20  20  20  20  20  20  20  20  20  20  20  20  20  20  20  20  20  20  20  20  0  0  0  0  0  0  19  19  19  19  19  19  19  19  19  19  19  
0  0  0  0  0  0  0  0  0  0  0  0  21  21  21  21  21  21  21  21  21  21  21  21  21  21  21  21  21  21  21  21  21  21  0  0  0  0  0  20  20  20  20  20  20  20  20  20  20  20  20  20  20  20  20  20  20  20  20  20  20  20  20  0  20  20  20  20  20  20  20  20  20  20  20  20  20  20  20  20  20  20  20  0  0  0  0  0  0  19  19  19  19  19  19  19  19  19  19  19  
0  0  0  0  0  0  0  0  0  0  0  0  0  21  21  21  21  21  21  21  21  21  21  21  21  21  21  21  21  21  21  21  21  21  0  0  0  0  0  20  20  20  20  20  20  20  20  20  20  20  20  20  20  20  20  20  20  20  20  20  20  20  0  0  0  20  20  20  20  20  20  20  20  20  20  20  20  20  20  20  20  20  20  0  0  0  0  0  0  19  19  19  19  19  19  19  19  19  19  19  
0  0  0  0  0  0  0  0  0  0  0  0  0  0  21  21  21  21  21  21  21  21  21  21  21  21  21  21  21  21  21  21  21  21  0  0  0  0  0  0  20  20  20  20  20  20  20  20  20  20  20  20  20  20  20  20  20  20  20  20  20  20  0  0  0  0  20  20  20  20  20  20  20  20  20  20  20  20  20  20  20  20  20  0  0  0  0  0  0  19  19  19  19  19  19  19  19  19  19  19  
0  0  0  0  0  0  0  0  0  0  0  0  0  0  0  21  21  21  21  21  21  21  21  21  21  21  21  21  21  21  21  21  21  21  21  0  0  0  0  0  20  20  20  20  20  20  20  20  20  20  20  20  20  20  20  20  20  20  20  20  20  20  20  0  0  0  20  20  20  20  20  20  20  20  20  20  20  20  20  20  20  20  20  0  0  0  0  0  0  19  19  19  19  19  19  19  19  19  19  19  
0  0  0  0  0  0  0  0  0  0  22  22  0  0  0  0  0  21  21  21  21  21  21  21  21  21  21  21  21  21  21  21  21  21  21  0  0  0  0  0  20  20  20  20  20  20  20  20  20  20  20  20  20  20  20  20  20  20  20  20  20  20  20  0  0  0  0  20  20  20  20  20  20  20  20  20  20  20  20  20  20  20  20  0  0  0  0  0  0  0  19  19  19  19  19  19  19  19  19  19  
0  0  0  0  0  0  0  0  0  0  22  22  22  22  0  0  0  0  0  21  21  21  21  21  21  21  21  21  21  21  21  21  21  21  21  21  0  0  0  0  20  20  20  20  20  20  20  20  20  20  20  20  20  20  20  20  20  20  20  20  20  20  20  20  0  0  0  0  20  20  20  20  20  20  20  20  20  20  20  20  20  20  20  20  0  0  0  0  0  19  19  19  19  19  19  19  19  19  19  19  
0  0  0  0  0  0  0  0  0  22  22  22  22  22  22  22  22  0  0  0  21  21  21  21  21  21  21  21  21  21  21  21  21  21  21  21  0  0  0  0  0  20  20  20  20  20  20  20  20  20  20  20  20  20  20  20  20  20  20  20  20  20  20  20  0  0  0  0  0  20  20  20  20  20  20  20  20  20  20  20  20  20  20  20  0  0  0  0  0  0  19  19  19  19  19  19  19  19  19  19  
0  0  0  0  0  0  0  0  22  22  22  22  22  22  22  22  22  22  22  0  0  21  21  21  21  21  21  21  21  21  21  21  21  21  21  21  0  0  0  0  0  20  20  20  20  20  20  20  20  20  20  20  20  20  20  20  20  20  20  20  20  20  20  20  20  0  0  0  0  20  20  20  20  20  20  20  20  20  20  20  20  20  20  20  0  0  0  0  0  0  19  19  19  19  19  19  19  19  19  19  
0  0  0  0  0  0  0  0  22  22  22  22  22  22  22  22  22  22  22  22  0  0  0  21  21  21  21  21  21  21  21  21  21  21  21  21  0  0  0  0  0  0  20  20  20  20  20  20  20  20  20  20  20  20  20  20  20  20  20  20  20  20  20  20  20  0  0  0  0  0  20  20  20  20  20  20  20  20  20  20  20  20  20  20  0  0  0  0  0  0  19  19  19  19  19  19  19  19  19  19  
0  0  0  0  0  0  0  0  22  22  22  22  22  22  22  22  22  22  22  22  22  22  0  0  0  21  21  21  21  21  21  21  21  21  21  0  0  0  0  0  0  0  20  20  20  20  20  20  20  20  20  20  20  20  20  20  20  20  20  20  20  20  20  20  20  20  0  0  0  0  20  20  20  20  20  20  20  20  20  20  20  20  20  20  0  0  0  0  0  0  0  19  19  19  19  19  19  19  19  19  
0  0  0  0  0  0  0  0  22  22  22  22  22  22  22  22  22  22  22  22  22  22  22  22  0  0  0  21  21  21  21  21  21  21  0  0  0  0  0  0  0  0  0  20  20  20  20  20  20  20  20  20  20  20  20  20  20  20  20  20  20  20  20  20  20  20  0  0  0  0  0  20  20  20  20  20  20  20  20  20  20  20  20  20  0  0  0  0  0  0  0  19  19  19  19  19  19  19  19  19  
0  0  0  0  0  0  0  0  22  22  22  22  22  22  22  22  22  22  22  22  22  22  22  22  22  0  0  0  21  21  21  21  21  0  0  0  0  0  0  0  0  0  0  20  20  20  20  20  20  20  20  20  20  20  20  20  20  20  20  20  20  20  20  20  20  20  0  0  0  0  0  20  20  20  20  20  20  20  20  20  20  20  20  20  0  0  0  0  0  0  0  19  19  19  19  19  19  19  0  0  
0  0  0  0  0  0  0  0  22  22  22  22  22  22  22  22  22  22  22  22  22  22  22  22  22  22  0  0  0  0  0  0  0  0  0  0  0  0  0  0  0  0  0  0  0  20  20  20  20  20  20  20  20  20  20  20  20  20  20  20  20  20  20  20  20  20  0  0  0  0  0  0  20  20  20  20  20  20  20  20  20  20  20  20  0  0  0  0  0  0  0  0  19  19  19  19  19  0  0  0  
0  0  0  0  0  0  0  0  22  22  22  22  22  22  22  22  22  22  22  22  22  22  22  22  22  22  22  0  0  0  0  0  0  0  0  0  0  0  0  0  0  0  0  0  0  0  20  20  20  20  20  20  20  20  20  20  20  20  20  0  0  0  0  0  0  0  0  0  0  0  0  0  20  20  20  20  20  20  20  20  20  20  20  20  0  0  0  0  0  0  0  0  0  19  19  0  0  0  0  0  
0  0  0  0  0  0  0  0  22  22  22  22  22  22  22  22  22  22  22  22  22  22  22  22  22  22  22  0  0  0  0  0  0  0  0  0  0  0  0  0  0  0  0  0  0  0  0  0  0  20  0  0  20  20  0  0  0  0  0  0  0  0  0  0  0  0  0  0  0  0  0  0  0  0  0  20  20  20  20  20  20  20  20  20  20  20  20  20  0  0  0  0  0  0  0  0  0  0  0  0  
0  0  0  0  0  0  0  22  22  22  22  22  22  22  22  22  22  22  22  22  22  22  22  22  22  22  22  0  0  0  0  0  0  0  0  0  0  0  0  0  0  0  0  0  0  0  0  0  0  0  0  0  0  0  0  0  0  0  0  0  23  23  23  23  23  23  23  23  23  23  0  0  0  0  0  0  0  20  20  20  20  20  20  20  20  20  20  20  20  20  0  0  0  0  0  0  0  0  0  0  
0  0  0  0  0  0  0  22  22  22  22  22  22  22  22  22  22  22  22  22  22  22  22  22  22  22  22  0  0  0  0  0  0  0  0  0  0  0  0  0  0  0  0  0  0  0  0  0  0  0  0  0  0  0  0  0  23  23  23  23  23  23  23  23  23  23  23  23  23  23  0  0  0  0  0  0  20  20  20  20  20  20  20  20  20  20  20  20  20  20  20  0  0  0  0  0  0  0  0  0  
0  0  0  0  0  0  0  22  22  22  22  22  22  22  22  22  22  22  22  22  22  22  22  22  22  22  22  0  0  0  0  0  0  0  0  0  0  0  0  0  0  0  0  0  0  0  0  0  0  0  0  23  23  23  23  23  23  23  23  23  23  23  23  23  23  23  23  23  23  23  23  0  0  0  0  0  20  20  20  20  20  20  20  20  20  20  20  20  20  20  20  0  0  0  0  0  0  0  0  0  
0  0  0  0  0  0  22  22  22  22  22  22  22  22  22  22  22  22  22  22  22  22  22  22  22  22  22  0  0  0  0  0  0  0  0  0  0  0  0  0  0  0  0  0  0  0  0  0  0  0  23  23  23  23  23  23  23  23  23  23  23  23  23  23  23  23  23  23  23  23  0  0  0  0  0  0  20  20  20  20  20  20  20  20  20  20  20  20  20  20  20  20  0  0  0  0  0  0  0  0  
0  0  0  0  0  0  22  22  22  22  22  22  22  22  22  22  22  22  22  22  22  22  22  22  22  22  22  0  0  0  0  0  0  0  0  0  0  0  0  0  0  0  0  0  0  0  0  0  0  23  23  23  23  23  23  23  23  23  23  23  23  23  23  23  23  23  23  23  23  23  23  0  0  0  0  0  20  20  20  20  20  20  20  20  20  20  20  20  20  20  20  20  0  0  0  0  0  0  0  0  
0  0  0  0  0  22  22  22  22  22  22  22  22  22  22  22  22  22  22  22  22  22  22  22  22  22  22  0  0  0  0  0  0  0  0  0  0  0  0  0  0  0  0  0  0  0  0  0  23  23  23  23  23  23  23  23  23  23  23  23  23  23  23  23  23  23  23  23  23  23  0  0  0  0  0  0  0  20  20  20  20  20  20  20  20  20  20  20  20  20  20  20  0  0  0  0  0  0  0  0  
0  0  0  0  0  22  22  22  22  22  22  22  22  22  22  22  22  22  22  22  22  22  22  22  22  22  22  0  0  0  0  0  0  0  0  0  0  0  0  0  0  0  0  0  0  0  0  0  23  23  23  23  23  23  23  23  23  23  23  23  23  23  23  23  23  23  23  23  23  23  23  0  0  0  0  0  0  20  20  20  20  20  20  20  20  20  20  20  20  20  20  20  0  0  0  0  0  0  0  0  
0  0  0  0  0  22  22  22  22  22  22  22  22  22  22  22  22  22  22  22  22  22  22  22  22  22  22  0  0  0  0  0  0  0  0  0  0  0  0  0  0  0  0  0  0  0  0  0  23  23  23  23  23  23  23  23  23  23  23  23  23  23  23  23  23  23  23  23  23  23  23  0  0  0  0  0  0  20  20  20  20  20  20  20  20  20  20  20  20  20  20  20  20  0  0  0  0  0  0  0  
0  0  0  0  0  0  22  22  22  22  22  22  22  22  22  22  22  22  22  22  22  22  22  22  22  22  22  0  0  0  0  0  0  0  0  0  0  0  0  0  0  0  0  0  0  0  0  0  23  23  23  23  23  23  23  23  23  23  23  23  23  23  23  23  23  23  23  23  23  23  23  0  0  0  0  0  0  20  20  20  20  20  20  20  20  20  20  20  20  20  20  20  0  0  0  0  0  0  0  0  
0  0  0  0  0  0  22  22  22  22  22  22  22  22  22  22  22  22  22  22  22  22  22  22  22  22  22  22  0  0  0  0  0  0  0  0  0  0  0  0  0  0  0  0  0  0  0  0  23  23  23  23  23  23  23  23  23  23  23  23  23  23  23  23  23  23  23  23  23  23  23  0  0  0  0  0  0  20  20  20  20  20  20  20  20  20  20  20  20  20  20  20  0  0  0  0  0  0  0  0  
0  0  0  0  0  0  0  0  22  22  22  22  22  22  22  22  22  22  22  22  22  22  22  22  22  22  22  22  0  0  0  0  0  0  0  0  0  0  0  0  0  0  0  0  0  0  0  0  23  23  23  23  23  23  23  23  23  23  23  23  23  23  23  23  23  23  23  23  23  23  23  0  0  0  0  0  0  20  20  20  20  20  20  20  20  20  20  20  20  20  20  20  20  0  0  0  0  0  0  0  
0  0  0  0  0  0  0  0  0  22  22  22  22  22  22  22  22  22  22  22  22  22  22  22  22  22  22  22  0  0  0  0  0  0  0  0  0  0  0  0  0  0  0  0  0  0  0  0  23  23  23  23  23  23  23  23  23  23  23  23  23  23  23  23  23  23  23  23  23  23  23  0  0  0  0  0  0  0  20  20  20  20  20  20  20  20  20  20  20  20  20  20  0  0  0  0  0  0  0  0  
0  0  0  0  0  0  0  0  0  22  22  22  22  22  22  22  22  22  22  22  22  22  22  22  22  22  22  22  0  0  0  0  0  0  0  0  0  0  0  0  0  0  0  0  0  0  0  0  0  23  23  23  23  23  23  23  23  23  23  23  23  23  23  23  23  23  23  23  23  23  23  0  0  0  0  0  0  0  20  20  20  20  20  20  20  20  20  20  20  20  20  20  20  0  0  0  0  0  0  0  
0  0  0  0  0  0  0  0  0  0  22  22  22  22  22  22  22  22  22  22  22  22  22  22  22  22  22  22  0  0  0  0  0  0  0  0  0  0  0  0  0  0  0  0  0  0  0  0  0  23  23  23  23  23  23  23  23  23  23  23  23  23  23  23  23  23  23  23  23  23  23  0  0  0  0  0  0  20  20  20  20  20  20  20  20  20  20  20  20  20  20  20  20  0  0  0  0  0  0  0  
0  0  0  0  0  0  0  0  0  0  0  22  22  22  22  22  22  22  22  22  22  22  22  22  22  22  22  0  0  0  0  0  0  0  0  0  0  0  0  0  0  0  0  0  0  0  0  0  0  0  23  23  23  23  23  23  23  23  23  23  23  23  23  23  23  23  23  23  23  23  23  0  0  0  0  0  0  20  20  20  20  20  20  20  20  20  20  20  20  20  20  20  20  0  0  0  0  0  0  0  
0  0  0  0  0  0  0  0  0  0  0  0  22  22  22  22  22  22  22  22  22  22  22  22  22  22  0  0  0  0  0  0  0  0  0  0  24  24  24  24  24  24  24  24  24  0  0  0  0  0  0  23  23  23  23  23  23  23  23  23  23  23  23  23  23  23  23  23  23  23  23  0  0  0  0  0  0  20  20  20  20  20  20  20  20  20  20  20  20  20  20  20  20  0  0  0  0  0  0  0  
0  0  0  0  0  0  0  0  0  0  0  0  0  0  22  22  22  22  22  22  22  22  22  22  22  22  0  0  0  0  0  24  24  24  24  24  24  24  24  24  24  24  24  24  24  24  0  0  0  0  0  23  23  23  23  23  23  23  23  23  23  23  23  23  23  23  23  23  23  23  23  0  0  0  0  0  0  20  20  20  20  20  20  20  20  20  20  20  20  20  20  20  20  0  0  0  0  0  0  0  
0  0  0  0  0  0  0  0  0  0  0  0  0  0  0  22  22  22  22  22  22  22  22  22  22  0  0  0  0  0  0  24  24  24  24  24  24  24  24  24  24  24  24  24  24  24  24  0  0  0  0  0  23  23  23  23  23  23  23  23  23  23  23  23  23  23  23  23  23  23  23  0  0  0  0  0  0  20  20  20  20  20  20  20  20  20  20  20  20  20  20  20  20  20  0  0  0  0  0  0  
0  0  0  0  0  0  0  0  0  0  0  0  0  0  0  22  22  22  22  22  22  22  22  0  0  0  0  0  0  0  24  24  24  24  24  24  24  24  24  24  24  24  24  24  24  24  24  24  0  0  0  0  0  23  23  23  23  23  23  23  23  23  23  23  23  23  23  23  23  23  23  0  0  0  0  0  0  20  20  20  20  20  20  20  20  20  20  20  20  20  20  20  20  20  0  0  0  0  0  0  
0  0  0  0  0  0  0  0  0  0  0  0  0  0  0  0  0  0  0  0  0  0  0  0  0  0  0  0  0  24  24  24  24  24  24  24  24  24  24  24  24  24  24  24  24  24  24  24  24  24  0  0  0  0  23  23  23  23  23  23  23  23  23  23  23  23  23  23  23  23  23  23  0  0  0  0  0  0  20  20  20  20  20  20  20  20  20  20  20  20  20  20  20  20  20  0  0  0  0  0  
0  0  0  0  0  0  0  0  0  0  0  0  0  0  0  0  0  0  0  0  0  0  0  0  0  0  0  0  24  24  24  24  24  24  24  24  24  24  24  24  24  24  24  24  24  24  24  24  24  24  24  0  0  0  0  23  23  23  23  23  23  23  23  23  23  23  23  23  23  23  23  0  0  0  0  0  0  0  20  20  20  20  20  20  20  20  20  20  20  20  20  20  20  20  20  0  0  0  0  0  
0  0  0  0  0  0  0  0  0  0  0  0  0  0  0  0  0  0  0  0  0  0  0  0  0  0  0  0  24  24  24  24  24  24  24  24  24  24  24  24  24  24  24  24  24  24  24  24  24  24  24  24  0  0  0  0  23  23  23  23  23  23  23  23  23  23  23  23  23  23  23  0  0  0  0  0  0  0  20  20  20  20  20  20  20  20  20  20  20  20  20  20  20  20  20  0  0  0  0  0  
0  0  0  0  0  0  0  0  0  0  0  0  0  0  0  0  0  0  0  0  0  0  0  0  0  0  0  24  24  24  24  24  24  24  24  24  24  24  24  24  24  24  24  24  24  24  24  24  24  24  24  24  24  0  0  0  0  23  23  23  23  23  23  23  23  23  23  23  23  23  23  0  0  0  0  0  0  0  20  20  20  20  20  20  20  20  20  20  20  20  20  20  20  20  0  0  0  0  0  0  
0  0  0  0  0  0  0  0  0  0  0  0  0  0  0  0  0  0  0  0  0  0  0  0  0  0  0  24  24  24  24  24  24  24  24  24  24  24  24  24  24  24  24  24  24  24  24  24  24  24  24  24  24  24  0  0  0  0  23  23  23  23  23  23  23  23  23  23  23  23  23  0  0  0  0  0  0  0  0  20  20  20  20  20  20  20  20  20  20  20  20  20  20  20  20  0  0  0  0  0  
0  0  0  0  0  0  0  0  0  0  0  0  0  0  0  0  0  0  0  0  0  0  0  0  0  0  0  24  24  24  24  24  24  24  24  24  24  24  24  24  24  24  24  24  24  24  24  24  24  24  24  24  24  24  24  0  0  0  23  23  23  23  23  23  23  23  23  23  23  23  23  0  0  0  0  0  0  0  0  20  20  20  20  20  20  20  20  20  20  20  20  20  20  20  0  0  0  0  0  0  
0  0  0  0  0  0  0  0  0  0  0  0  0  0  0  0  0  0  0  0  0  0  0  0  0  0  0  0  24  24  24  24  24  24  24  24  24  24  24  24  24  24  24  24  24  24  24  24  24  24  24  24  24  24  24  24  0  0  0  23  23  23  23  23  23  23  23  23  23  23  0  0  0  0  0  0  0  0  0  0  0  20  20  20  20  20  20  20  20  20  20  20  20  0  0  0  0  0  0  25  
0  0  0  0  0  0  0  0  0  0  0  0  0  0  0  0  0  0  0  0  0  0  0  0  0  0  0  0  24  24  24  24  24  24  24  24  24  24  24  24  24  24  24  24  24  24  24  24  24  24  24  24  24  24  24  24  0  0  0  0  23  23  23  23  23  23  23  23  23  0  0  0  0  0  0  0  0  0  0  0  20  0  0  0  0  0  20  20  20  20  20  20  20  0  0  0  0  0  25  25  
0  0  0  0  0  0  0  0  0  0  0  0  0  0  0  0  0  0  0  0  0  0  0  0  0  0  0  0  0  24  24  24  24  24  24  24  24  24  24  24  24  24  24  24  24  24  24  24  24  24  24  24  24  24  24  24  24  0  0  0  0  23  23  23  23  23  23  23  23  0  0  0  0  0  0  0  0  0  0  0  0  0  0  0  0  0  0  0  0  0  20  20  0  0  0  0  0  0  25  25  
0  0  0  0  0  0  0  0  0  0  0  0  0  0  0  0  0  0  0  0  0  0  0  0  0  0  0  0  0  0  24  24  24  24  24  24  24  24  24  24  24  24  24  24  24  24  24  24  24  24  24  24  24  24  24  24  24  0  0  0  0  0  0  23  23  23  23  23  0  0  0  0  0  0  0  0  0  0  0  0  0  0  0  0  0  0  0  0  0  0  0  0  0  0  0  0  0  25  25  25  
0  0  0  0  0  0  0  0  0  0  0  0  0  0  0  0  0  0  0  0  0  0  0  0  0  0  0  0  0  0  0  24  24  24  24  24  24  24  24  24  24  24  24  24  24  24  24  24  24  24  24  24  24  24  24  24  24  0  0  0  0  0  0  0  0  0  23  0  0  0  0  0  0  0  0  0  0  0  0  0  0  0  0  0  0  0  0  0  0  0  0  0  0  0  0  0  0  25  25  25  
0  0  0  0  0  0  0  0  0  0  0  0  0  0  0  0  0  0  0  0  0  0  0  0  0  0  0  0  0  0  0  0  0  24  24  24  24  24  24  24  24  24  24  24  24  24  24  24  24  24  24  24  24  24  24  24  24  0  0  0  0  0  0  0  0  0  0  0  0  0  0  0  0  0  0  0  0  0  0  0  0  0  0  0  0  0  0  0  0  0  0  0  0  0  0  0  0  25  25  25  
0  0  0  0  0  0  0  0  0  0  0  0  0  0  0  0  0  0  0  0  26  0  0  0  0  0  0  0  0  0  0  0  0  0  0  0  24  24  24  24  24  24  24  24  24  24  24  24  24  24  24  24  24  24  24  24  24  0  0  0  0  0  0  0  0  0  0  0  0  0  0  0  0  0  0  0  0  0  0  0  27  0  0  0  0  0  0  0  0  0  0  0  0  0  0  0  0  25  25  25  
0  0  0  0  0  0  0  0  0  0  0  0  0  0  0  0  0  0  0  0  26  26  0  0  0  0  0  0  0  0  0  0  0  0  0  0  0  0  24  24  24  24  24  24  24  24  24  24  24  24  24  24  24  24  24  0  0  0  0  0  0  0  0  0  0  0  0  0  0  0  0  0  0  0  0  0  0  0  0  0  0  0  0  0  0  0  0  0  0  0  0  0  0  0  0  0  0  25  25  25  
0  0  0  0  0  0  0  0  0  0  0  0  0  0  0  0  0  0  0  0  0  0  0  0  0  0  0  0  0  0  0  0  0  0  0  0  0  0  0  0  24  24  24  24  24  24  24  24  24  24  24  24  24  24  0  0  0  0  0  0  0  0  0  0  0  0  0  0  0  0  0  0  0  0  0  0  0  0  0  0  0  0  0  0  0  0  0  0  0  0  0  0  0  0  0  0  0  0  25  25  
0  0  0  0  0  0  0  0  0  0  0  0  0  0  0  0  0  0  0  0  0  0  0  0  0  0  0  0  0  0  0  0  0  0  0  0  0  0  0  0  0  0  0  24  24  24  24  24  24  24  24  24  0  0  0  0  0  0  0  0  0  0  0  0  0  0  0  0  0  0  0  0  0  0  0  0  0  0  0  0  0  0  0  0  0  0  0  0  0  0  0  0  0  0  0  0  0  0  25  25  
0  0  0  0  0  0  0  0  0  0  0  0  0  0  0  0  0  0  0  0  0  0  0  0  0  0  0  0  0  0  0  0  0  0  0  0  0  0  0  0  0  0  0  0  0  24  24  24  24  24  24  0  0  0  0  0  0  0  0  0  0  0  0  0  28  0  0  0  0  0  0  0  0  0  0  0  0  0  0  0  0  0  0  0  0  0  0  0  0  0  0  0  0  0  0  0  0  0  25  25  
0  0  0  0  0  0  0  0  0  0  0  0  0  0  0  0  0  0  0  0  0  0  0  0  0  0  0  0  0  0  0  0  0  0  0  0  0  0  0  0  0  0  0  0  0  0  0  0  0  0  0  0  0  0  0  0  0  0  0  0  0  0  0  0  0  0  0  0  0  0  0  0  0  0  0  0  0  0  0  0  0  0  0  0  0  0  0  0  0  0  0  0  0  0  0  0  0  0  0  25  
25  25  25  25  25  25  25  25  25  25  25  25  25  25  25  25  25  25  25  25  25  25  25  25  25  25  25  25  25  25  25  25  25  25  25  25  25  25  25  25  25  25  25  25  25  25  25  25  25  25  25  25  25  25  25  25  25  25  25  25  25  25  25  25  25  25  25  25  25  25  25  25  25  25  25  25  25  25  25  25  25  25  25  25  25  25  25  25  25  25  25  25  25  25  25  25  25  25  25  25  
